<mxfile host="app.diagrams.net" modified="2023-08-04T10:54:53.616Z" agent="Mozilla/5.0 (X11; Linux x86_64; rv:109.0) Gecko/20100101 Firefox/115.0" etag="H3vDXAQEMAKexTF8QTcr" version="21.6.6" type="github">
  <diagram name="Seite-1" id="ELZUeX0YocxNJb1q_E6c">
    <mxGraphModel dx="794" dy="1043" grid="1" gridSize="10" guides="1" tooltips="1" connect="1" arrows="1" fold="1" page="1" pageScale="1" pageWidth="827" pageHeight="1169" math="0" shadow="0">
      <root>
        <mxCell id="0" />
        <mxCell id="1" parent="0" />
        <mxCell id="GAWwl-giYYkklGFR_YXa-1" value="" style="rounded=0;whiteSpace=wrap;html=1;fillColor=#f8cecc;strokeColor=#b85450;" parent="1" vertex="1">
          <mxGeometry x="310" y="130" width="230" height="160" as="geometry" />
        </mxCell>
        <mxCell id="FfZUA_TqmdPB6vUnj2kE-2" value="EnV5Controller.java" style="swimlane;fontStyle=0;childLayout=stackLayout;horizontal=1;startSize=30;horizontalStack=0;resizeParent=1;resizeParentMax=0;resizeLast=0;collapsible=1;marginBottom=0;whiteSpace=wrap;html=1;" parent="1" vertex="1">
          <mxGeometry x="50" y="210" width="170" height="60" as="geometry" />
        </mxCell>
        <mxCell id="FfZUA_TqmdPB6vUnj2kE-4" value="&lt;div&gt;requestPowerSensorData()&lt;/div&gt;" style="text;strokeColor=none;fillColor=none;align=left;verticalAlign=middle;spacingLeft=4;spacingRight=4;overflow=hidden;points=[[0,0.5],[1,0.5]];portConstraint=eastwest;rotatable=0;whiteSpace=wrap;html=1;" parent="FfZUA_TqmdPB6vUnj2kE-2" vertex="1">
          <mxGeometry y="30" width="170" height="30" as="geometry" />
        </mxCell>
        <mxCell id="FfZUA_TqmdPB6vUnj2kE-7" value="TwinData.java" style="swimlane;fontStyle=0;childLayout=stackLayout;horizontal=1;startSize=30;horizontalStack=0;resizeParent=1;resizeParentMax=0;resizeLast=0;collapsible=1;marginBottom=0;whiteSpace=wrap;html=1;" parent="1" vertex="1">
          <mxGeometry x="320.5" y="210" width="210" height="60" as="geometry" />
        </mxCell>
        <mxCell id="FfZUA_TqmdPB6vUnj2kE-8" value="stopIfTwinInactive()" style="text;align=left;verticalAlign=middle;spacingLeft=4;spacingRight=4;overflow=hidden;points=[[0,0.5],[1,0.5]];portConstraint=eastwest;rotatable=0;whiteSpace=wrap;html=1;fillColor=#f5f5f5;fontColor=#333333;strokeColor=#666666;" parent="FfZUA_TqmdPB6vUnj2kE-7" vertex="1">
          <mxGeometry y="30" width="210" height="30" as="geometry" />
        </mxCell>
        <mxCell id="FfZUA_TqmdPB6vUnj2kE-11" style="edgeStyle=orthogonalEdgeStyle;rounded=0;orthogonalLoop=1;jettySize=auto;html=1;entryX=0;entryY=0.5;entryDx=0;entryDy=0;" parent="1" source="FfZUA_TqmdPB6vUnj2kE-4" target="FfZUA_TqmdPB6vUnj2kE-8" edge="1">
          <mxGeometry relative="1" as="geometry" />
        </mxCell>
        <mxCell id="GAWwl-giYYkklGFR_YXa-14" style="edgeStyle=orthogonalEdgeStyle;rounded=0;orthogonalLoop=1;jettySize=auto;html=1;entryX=0;entryY=0.5;entryDx=0;entryDy=0;exitX=1;exitY=0.5;exitDx=0;exitDy=0;" parent="1" source="FfZUA_TqmdPB6vUnj2kE-21" target="GAWwl-giYYkklGFR_YXa-11" edge="1">
          <mxGeometry relative="1" as="geometry" />
        </mxCell>
        <mxCell id="FfZUA_TqmdPB6vUnj2kE-20" value="MonitoringServiceApplication.java" style="swimlane;fontStyle=0;childLayout=stackLayout;horizontal=1;startSize=30;horizontalStack=0;resizeParent=1;resizeParentMax=0;resizeLast=0;collapsible=1;marginBottom=0;whiteSpace=wrap;html=1;" parent="1" vertex="1">
          <mxGeometry x="320" y="500" width="207" height="60" as="geometry" />
        </mxCell>
        <mxCell id="FfZUA_TqmdPB6vUnj2kE-21" value="getLatestMeasurement()" style="text;strokeColor=none;fillColor=none;align=left;verticalAlign=middle;spacingLeft=4;spacingRight=4;overflow=hidden;points=[[0,0.5],[1,0.5]];portConstraint=eastwest;rotatable=0;whiteSpace=wrap;html=1;" parent="FfZUA_TqmdPB6vUnj2kE-20" vertex="1">
          <mxGeometry y="30" width="207" height="30" as="geometry" />
        </mxCell>
        <mxCell id="FfZUA_TqmdPB6vUnj2kE-25" style="edgeStyle=orthogonalEdgeStyle;rounded=0;orthogonalLoop=1;jettySize=auto;html=1;entryX=0;entryY=0.5;entryDx=0;entryDy=0;" parent="1" source="FfZUA_TqmdPB6vUnj2kE-4" target="FfZUA_TqmdPB6vUnj2kE-21" edge="1">
          <mxGeometry relative="1" as="geometry">
            <Array as="points">
              <mxPoint x="135" y="545" />
            </Array>
          </mxGeometry>
        </mxCell>
        <mxCell id="GAWwl-giYYkklGFR_YXa-2" value="&lt;div&gt;New Thread&lt;/div&gt;" style="text;html=1;strokeColor=none;fillColor=none;align=center;verticalAlign=middle;whiteSpace=wrap;rounded=0;" parent="1" vertex="1">
          <mxGeometry x="397" y="150" width="60" height="30" as="geometry" />
        </mxCell>
        <mxCell id="GAWwl-giYYkklGFR_YXa-5" value="TwinData" style="swimlane;fontStyle=0;childLayout=stackLayout;horizontal=1;startSize=30;horizontalStack=0;resizeParent=1;resizeParentMax=0;resizeLast=0;collapsible=1;marginBottom=0;whiteSpace=wrap;html=1;" parent="1" vertex="1">
          <mxGeometry x="320" y="350" width="205" height="90" as="geometry" />
        </mxCell>
        <mxCell id="GAWwl-giYYkklGFR_YXa-6" value="&lt;div&gt;twinData.getLifeTime().put(dataId, System.currentTimeMillis());&lt;/div&gt;&lt;div&gt;(Update Twin Lifetime)&lt;br&gt;&lt;/div&gt;" style="text;strokeColor=none;fillColor=none;align=left;verticalAlign=middle;spacingLeft=4;spacingRight=4;overflow=hidden;points=[[0,0.5],[1,0.5]];portConstraint=eastwest;rotatable=0;whiteSpace=wrap;html=1;" parent="GAWwl-giYYkklGFR_YXa-5" vertex="1">
          <mxGeometry y="30" width="205" height="60" as="geometry" />
        </mxCell>
        <mxCell id="GAWwl-giYYkklGFR_YXa-9" style="edgeStyle=orthogonalEdgeStyle;rounded=0;orthogonalLoop=1;jettySize=auto;html=1;entryX=0;entryY=0.5;entryDx=0;entryDy=0;exitX=0.818;exitY=1;exitDx=0;exitDy=0;exitPerimeter=0;" parent="1" source="FfZUA_TqmdPB6vUnj2kE-4" target="GAWwl-giYYkklGFR_YXa-6" edge="1">
          <mxGeometry relative="1" as="geometry">
            <Array as="points">
              <mxPoint x="189" y="410" />
            </Array>
          </mxGeometry>
        </mxCell>
        <mxCell id="GAWwl-giYYkklGFR_YXa-10" value="DataRequester.java" style="swimlane;fontStyle=0;childLayout=stackLayout;horizontal=1;startSize=30;horizontalStack=0;resizeParent=1;resizeParentMax=0;resizeLast=0;collapsible=1;marginBottom=0;whiteSpace=wrap;html=1;" parent="1" vertex="1">
          <mxGeometry x="630" y="500" width="140" height="60" as="geometry" />
        </mxCell>
        <mxCell id="GAWwl-giYYkklGFR_YXa-11" value="startRequestingData()" style="text;strokeColor=none;fillColor=none;align=left;verticalAlign=middle;spacingLeft=4;spacingRight=4;overflow=hidden;points=[[0,0.5],[1,0.5]];portConstraint=eastwest;rotatable=0;whiteSpace=wrap;html=1;" parent="GAWwl-giYYkklGFR_YXa-10" vertex="1">
          <mxGeometry y="30" width="140" height="30" as="geometry" />
        </mxCell>
        <mxCell id="GAWwl-giYYkklGFR_YXa-16" value="DataRequester.java" style="swimlane;fontStyle=0;childLayout=stackLayout;horizontal=1;startSize=30;horizontalStack=0;resizeParent=1;resizeParentMax=0;resizeLast=0;collapsible=1;marginBottom=0;whiteSpace=wrap;html=1;" parent="1" vertex="1">
          <mxGeometry x="630" y="210" width="140" height="60" as="geometry" />
        </mxCell>
        <mxCell id="GAWwl-giYYkklGFR_YXa-17" value="stopRequestingData()" style="text;strokeColor=none;fillColor=none;align=left;verticalAlign=middle;spacingLeft=4;spacingRight=4;overflow=hidden;points=[[0,0.5],[1,0.5]];portConstraint=eastwest;rotatable=0;whiteSpace=wrap;html=1;" parent="GAWwl-giYYkklGFR_YXa-16" vertex="1">
          <mxGeometry y="30" width="140" height="30" as="geometry" />
        </mxCell>
        <mxCell id="GAWwl-giYYkklGFR_YXa-18" style="edgeStyle=orthogonalEdgeStyle;rounded=0;orthogonalLoop=1;jettySize=auto;html=1;entryX=0;entryY=0.5;entryDx=0;entryDy=0;" parent="1" source="FfZUA_TqmdPB6vUnj2kE-8" target="GAWwl-giYYkklGFR_YXa-17" edge="1">
          <mxGeometry relative="1" as="geometry" />
        </mxCell>
        <mxCell id="MAAX6f0NwYNTmlEBwgbF-1" value="&lt;font style=&quot;font-size: 30px;&quot; color=&quot;#ff8a30&quot;&gt;Subscribe and Unsubscribe&lt;/font&gt;" style="text;html=1;align=center;verticalAlign=middle;whiteSpace=wrap;rounded=0;" vertex="1" parent="1">
          <mxGeometry x="223.5" y="30" width="400" height="50" as="geometry" />
        </mxCell>
      </root>
    </mxGraphModel>
  </diagram>
</mxfile>
